<svg width="101" height="30" viewBox="0 0 101 30" fill="none" xmlns="http://www.w3.org/2000/svg">
<g clip-path="url(#clip0_20_19)">
<path d="M2.02766 8.74801C2.02766 7.95746 1.91912 7.37619 1.70212 7.00419C1.48512 6.61664 1.05112 6.42292 0.400121 6.42292H-0.0648804V5.95792H2.02766C2.60112 5.95792 3.02739 6.03546 3.30639 6.19046C3.60094 6.32992 3.81021 6.59346 3.93421 6.98092C4.05821 7.36846 4.12021 7.95746 4.12021 8.74801V20.3733H12.3741V21.3033H2.02766V8.74801Z" fill="#5A5C4E"/>
<path d="M17.6739 21.5357C16.6199 21.5357 15.7054 21.2877 14.9304 20.7917C14.1554 20.2802 13.5664 19.5905 13.1634 18.7225C12.7604 17.8545 12.5588 16.8934 12.5588 15.8394C12.5588 14.7854 12.7604 13.8244 13.1634 12.9563C13.5664 12.0883 14.1554 11.4063 14.9304 10.9103C15.7054 10.3987 16.6199 10.143 17.6739 10.143C18.728 10.143 19.6425 10.3987 20.4175 10.9103C21.1926 11.4063 21.7816 12.0883 22.1846 12.9563C22.5876 13.8244 22.7891 14.7854 22.7891 15.8394C22.7891 16.8934 22.5876 17.8545 22.1846 18.7225C21.7816 19.5905 21.1926 20.2802 20.4175 20.7917C19.6425 21.2877 18.728 21.5357 17.6739 21.5357ZM17.6739 20.6057C18.2475 20.6057 18.7512 20.3965 19.1852 19.978C19.6347 19.5595 19.9757 18.9859 20.2083 18.2575C20.4563 17.5289 20.5803 16.7229 20.5803 15.8394C20.5803 14.9558 20.4563 14.1498 20.2083 13.4214C19.9757 12.6928 19.6347 12.1193 19.1852 11.7008C18.7512 11.2823 18.2475 11.073 17.6739 11.073C17.1005 11.073 16.5889 11.2823 16.1394 11.7008C15.7054 12.1193 15.3644 12.6928 15.1164 13.4214C14.8839 14.1498 14.7677 14.9558 14.7677 15.8394C14.7677 16.7229 14.8839 17.5289 15.1164 18.2575C15.3644 18.9859 15.7054 19.5595 16.1394 19.978C16.5889 20.3965 17.1005 20.6057 17.6739 20.6057Z" fill="#5A5C4E"/>
<path d="M28.8639 25.9534C27.2984 25.9534 26.0505 25.6666 25.1205 25.0931C24.206 24.5195 23.7487 23.6051 23.7487 22.3496C23.7487 21.6366 23.989 21.0165 24.4695 20.4895C24.95 19.9625 25.5623 19.575 26.3064 19.327C25.6863 18.9859 25.3763 18.5209 25.3763 17.9319C25.3763 17.6219 25.4461 17.3816 25.5855 17.2112C25.7251 17.0406 25.9265 16.8546 26.1901 16.6532C25.6941 16.4052 25.2755 16.0176 24.9345 15.4906C24.609 14.9636 24.4463 14.3436 24.4463 13.6306C24.4463 11.3056 25.9188 10.143 28.8639 10.143H33.1652V10.7243L31.6539 10.9567V11.073C32.1344 11.321 32.522 11.6698 32.8164 12.1193C33.1264 12.5533 33.2814 13.0571 33.2814 13.6306C33.2814 15.9556 31.8089 17.1182 28.8639 17.1182C27.2364 17.1182 26.4225 17.3895 26.4225 17.9319C26.4225 18.4745 27.2364 18.7457 28.8639 18.7457C30.3674 18.7457 31.5919 19.0479 32.5374 19.6525C33.4984 20.2415 33.979 21.1405 33.979 22.3496C33.979 23.6051 33.514 24.5195 32.584 25.0931C31.6694 25.6666 30.4294 25.9534 28.8639 25.9534ZM28.8639 16.3044C29.5614 16.3044 30.1194 16.0951 30.5379 15.6766C30.9719 15.2426 31.1889 14.5606 31.1889 13.6306C31.1889 12.7471 30.9719 12.0806 30.5379 11.631C30.1194 11.1816 29.5614 10.9567 28.8639 10.9567C28.1664 10.9567 27.6006 11.1738 27.1666 11.6078C26.7481 12.0263 26.5388 12.7006 26.5388 13.6306C26.5388 14.5606 26.7481 15.2426 27.1666 15.6766C27.6006 16.0951 28.1664 16.3044 28.8639 16.3044ZM28.8639 25.0234C29.7939 25.0234 30.5302 24.7986 31.0726 24.3491C31.6152 23.9151 31.8864 23.2486 31.8864 22.3496C31.8864 20.7995 30.9564 19.9082 29.0964 19.6757L27.8176 19.5595C27.1821 19.8075 26.6938 20.1562 26.3528 20.6057C26.0118 21.0553 25.8413 21.6366 25.8413 22.3496C25.8413 23.2486 26.1125 23.9151 26.6551 24.3491C27.1976 24.7986 27.9338 25.0234 28.8639 25.0234Z" fill="#5A5C4E"/>
<path d="M40.0517 21.5357C38.9977 21.5357 38.0831 21.2877 37.3081 20.7917C36.5331 20.2802 35.9441 19.5905 35.541 18.7225C35.138 17.8545 34.9366 16.8934 34.9366 15.8394C34.9366 14.7854 35.138 13.8244 35.541 12.9563C35.9441 12.0883 36.5331 11.4063 37.3081 10.9103C38.0831 10.3987 38.9977 10.143 40.0517 10.143C41.1057 10.143 42.0202 10.3987 42.7952 10.9103C43.5705 11.4063 44.1596 12.0883 44.5623 12.9563C44.965 13.8244 45.1669 14.7854 45.1669 15.8394C45.1669 16.8934 44.965 17.8545 44.5623 18.7225C44.1596 19.5905 43.5705 20.2802 42.7952 20.7917C42.0202 21.2877 41.1057 21.5357 40.0517 21.5357ZM40.0517 20.6057C40.6252 20.6057 41.1289 20.3965 41.5629 19.978C42.0125 19.5595 42.3535 18.9859 42.5859 18.2575C42.834 17.5289 42.958 16.7229 42.958 15.8394C42.958 14.9558 42.834 14.1498 42.5859 13.4214C42.3535 12.6928 42.0125 12.1193 41.5629 11.7008C41.1289 11.2823 40.6252 11.073 40.0517 11.073C39.4781 11.073 38.9667 11.2823 38.5171 11.7008C38.0831 12.1193 37.7421 12.6928 37.4941 13.4214C37.2616 14.1498 37.1454 14.9558 37.1454 15.8394C37.1454 16.7229 37.2616 17.5289 37.4941 18.2575C37.7421 18.9859 38.0831 19.5595 38.5171 19.978C38.9667 20.3965 39.4781 20.6057 40.0517 20.6057Z" fill="#5A5C4E"/>
<path d="M48.4287 8.98047C48.0714 8.98047 47.7614 8.8332 47.4978 8.53874C47.2505 8.2442 47.126 7.89547 47.126 7.49247C47.126 7.16692 47.2196 6.9112 47.4051 6.7252C47.6069 6.5392 47.8705 6.4462 48.196 6.4462C48.5523 6.4462 48.8541 6.59347 49.1023 6.88792C49.366 7.18247 49.4978 7.5312 49.4978 7.9342C49.4978 8.25974 49.3969 8.51547 49.1951 8.70147C49.0096 8.88747 48.7542 8.98047 48.4287 8.98047ZM47.5451 13.1656C47.5451 12.3751 47.436 11.7938 47.2196 11.4218C47.0023 11.0343 46.5678 10.8406 45.9169 10.8406H45.4523V10.3756H47.5451C48.1178 10.3756 48.5441 10.453 48.8232 10.608C49.1178 10.7476 49.3269 11.011 49.4514 11.3986C49.5751 11.786 49.6369 12.3751 49.6369 13.1656V21.3033H47.5451V13.1656Z" fill="#5A5C4E"/>
<path d="M52.5687 13.1656C52.5687 12.3751 52.4605 11.7938 52.2432 11.4218C52.0269 11.0343 51.5923 10.8406 50.9414 10.8406H50.4769V10.3756H52.5687C53.1578 10.3756 53.5996 10.4607 53.8941 10.6313C54.2041 10.7863 54.4214 11.0498 54.545 11.4218H54.6614C54.9405 11.0653 55.336 10.763 55.8478 10.515C56.3587 10.267 57.0096 10.143 57.8005 10.143C59.1332 10.143 60.1641 10.6856 60.8923 11.7706C61.6214 12.8401 61.985 14.1964 61.985 15.8394C61.985 17.4979 61.606 18.8619 60.846 19.9315C60.1023 21.001 59.0096 21.5357 57.5678 21.5357C56.9787 21.5357 56.4596 21.4737 56.0105 21.3497C55.5605 21.2257 55.1114 21.0553 54.6614 20.8383V25.7208H52.5687V13.1656ZM56.8705 20.6057C57.8623 20.6057 58.5905 20.1717 59.056 19.3037C59.536 18.4357 59.7769 17.2809 59.7769 15.8394C59.7769 14.4134 59.5523 13.2664 59.1023 12.3983C58.6532 11.5148 57.986 11.073 57.1032 11.073C56.0641 11.073 55.2505 11.538 54.6614 12.4681V19.9082C55.1269 20.1252 55.5296 20.2957 55.8705 20.4197C56.2114 20.5437 56.545 20.6057 56.8705 20.6057Z" fill="#5A5C4E"/>
<path d="M67.6842 21.5357C65.9014 21.5357 64.6996 21.2257 64.0796 20.6057C63.8169 20.3423 63.6542 20.0477 63.5914 19.7222C63.5296 19.3812 63.4987 18.8619 63.4987 18.1645H63.9642C64.1033 18.9395 64.4369 19.544 64.9633 19.978C65.506 20.3965 66.2578 20.6057 67.2187 20.6057C68.0714 20.6057 68.7069 20.4585 69.1251 20.164C69.5596 19.8695 69.776 19.4742 69.776 18.9782C69.776 18.5287 69.606 18.1412 69.2651 17.8156C68.9396 17.4902 68.4124 17.1802 67.6842 16.8856L66.2887 16.3044C65.3587 15.9324 64.6614 15.4984 64.196 15.0024C63.7314 14.5064 63.4987 13.8941 63.4987 13.1656C63.4987 12.2201 63.8551 11.4838 64.5687 10.9567C65.2814 10.4143 66.2033 10.143 67.3351 10.143C69.0405 10.143 70.2024 10.453 70.8224 11.073C71.086 11.3366 71.2487 11.631 71.3105 11.9566C71.3733 12.2821 71.4042 12.8013 71.4042 13.5144H70.9387C70.8151 12.7393 70.4896 12.1426 69.9624 11.724C69.4351 11.29 68.7151 11.073 67.8005 11.073C67.0714 11.073 66.4978 11.228 66.0796 11.538C65.6769 11.8326 65.4751 12.2201 65.4751 12.7006C65.4751 13.5066 66.0951 14.1654 67.3351 14.6768L68.7305 15.2581C69.7842 15.6921 70.5514 16.1572 71.0324 16.6532C71.5124 17.1336 71.7523 17.7536 71.7523 18.5132C71.7523 19.4587 71.3733 20.2027 70.6133 20.7453C69.8542 21.2723 68.8778 21.5357 67.6842 21.5357Z" fill="#5A5C4E"/>
<path d="M77.6887 21.5357C76.526 21.5357 75.5723 21.2257 74.8287 20.6057C74.0996 19.9857 73.736 18.9007 73.736 17.3506V13.1655C73.736 12.3751 73.6269 11.7938 73.4105 11.4218C73.1933 11.0343 72.7596 10.8405 72.1078 10.8405H71.876V10.3755H73.736C74.3096 10.3755 74.7351 10.453 75.0142 10.608C75.3087 10.7475 75.5178 11.011 75.6423 11.3985C75.766 11.786 75.8278 12.3751 75.8278 13.1655V17.3506C75.8278 18.4357 76.0687 19.2339 76.5487 19.7455C77.0451 20.2415 77.6569 20.4895 78.386 20.4895C79.2069 20.4895 79.9823 20.0787 80.7105 19.2572V10.3755H82.8033V21.3033H81.6405L80.8269 20.3733H80.7105C80.3851 20.6987 79.9587 20.9777 79.4324 21.2103C78.9205 21.4273 78.3396 21.5357 77.6887 21.5357Z" fill="#5A5C4E"/>
<path d="M85.806 13.1656C85.806 12.3751 85.6978 11.7938 85.4805 11.4218C85.2642 11.0343 84.8296 10.8406 84.1787 10.8406H83.7142V10.3756H85.806C86.3796 10.3756 86.8142 10.453 87.1087 10.608C87.4187 10.763 87.6433 10.9955 87.7824 11.3055H87.8987C88.2242 10.98 88.6433 10.7087 89.1542 10.4917C89.6815 10.2593 90.2705 10.143 90.9215 10.143C91.5724 10.143 92.1305 10.267 92.5951 10.515C93.0605 10.7476 93.4323 11.166 93.7114 11.7706C94.1142 11.259 94.626 10.8637 95.246 10.5847C95.8814 10.2903 96.5324 10.143 97.1987 10.143C98.1915 10.143 98.9814 10.453 99.5705 11.073C100.16 11.693 100.454 12.7781 100.454 14.3281V21.3033H98.3614V14.3281C98.3614 13.2121 98.2069 12.4138 97.8969 11.9333C97.5869 11.4373 97.1214 11.1893 96.5014 11.1893C96.0678 11.1893 95.6105 11.352 95.1296 11.6776C94.6496 11.9876 94.2924 12.3286 94.0605 12.7006C94.1378 12.9331 94.1769 13.4756 94.1769 14.3281V21.3033H92.0842V14.3281C92.0842 13.2121 91.9287 12.4138 91.6187 11.9333C91.3087 11.4373 90.8442 11.1893 90.2242 11.1893C89.4024 11.1893 88.6278 11.6 87.8987 12.4216V21.3033H85.806V13.1656Z" fill="#5A5C4E"/>
</g>
<defs>
<clipPath id="clip0_20_19">
<rect width="101" height="30" fill="white"/>
</clipPath>
</defs>
</svg>
